<svg width="32" height="32" viewBox="0 0 32 32" fill="none" xmlns="http://www.w3.org/2000/svg">
<path d="M10.8909 21.1428H11.6409V20.3928H10.8909V21.1428ZM10.8909 25H10.1409C10.1409 25.284 10.3014 25.5437 10.5554 25.6708C10.8094 25.7978 11.1134 25.7705 11.3407 25.6001L10.8909 25ZM16.0371 21.1428V20.3928H15.7873L15.5873 20.5427L16.0371 21.1428ZM12.1775 11.3928H11.4275V12.8928H12.1775V11.3928ZM19.8968 12.8928H20.6468V11.3928H19.8968V12.8928ZM12.1775 15.25H11.4275V16.75H12.1775V15.25ZM17.3237 16.75H18.0737V15.25H17.3237V16.75ZM10.1409 21.1428V25H11.6409V21.1428H10.1409ZM11.3407 25.6001L16.487 21.743L15.5873 20.5427L10.4411 24.3999L11.3407 25.6001ZM16.0371 21.8928H23.7565V20.3928H16.0371V21.8928ZM23.7565 21.8928C24.8817 21.8928 25.793 20.9828 25.793 19.8572H24.293C24.293 20.1535 24.0542 20.3928 23.7565 20.3928V21.8928ZM25.793 19.8572V8.28569H24.293V19.8572H25.793ZM25.793 8.28569C25.793 7.16 24.8817 6.25 23.7565 6.25V7.75C24.0542 7.75 24.293 7.98938 24.293 8.28569H25.793ZM23.7565 6.25H8.31781V7.75H23.7565V6.25ZM8.31781 6.25C7.19261 6.25 6.28125 7.16 6.28125 8.28569H7.78125C7.78125 7.98938 8.02007 7.75 8.31781 7.75V6.25ZM6.28125 8.28569V19.8572H7.78125V8.28569H6.28125ZM6.28125 19.8572C6.28125 20.9828 7.19261 21.8928 8.31781 21.8928V20.3928C8.02007 20.3928 7.78125 20.1535 7.78125 19.8572H6.28125ZM8.31781 21.8928H10.8909V20.3928H8.31781V21.8928ZM12.1775 12.8928H19.8968V11.3928H12.1775V12.8928ZM12.1775 16.75H17.3237V15.25H12.1775V16.75Z" fill="#090A0B"/>
</svg>
