<svg fill="none" xmlns="http://www.w3.org/2000/svg" viewBox="0 0 24 24">
  <path d="M6.857 17.143h.75v-.75h-.75v.75zm0 3.857h-.75a.75.75 0 001.2.6l-.45-.6zM12 17.143v-.75h-.25l-.2.15.45.6zm-3.857-9.75h-.75v1.5h.75v-1.5zm7.714 1.5h.75v-1.5h-.75v1.5zM8.143 11.25h-.75v1.5h.75v-1.5zm5.143 1.5h.75v-1.5h-.75v1.5zm-7.179 4.393V21h1.5v-3.857h-1.5zm1.2 4.457l5.143-3.857-.9-1.2L6.407 20.4l.9 1.2zM12 17.893h7.714v-1.5H12v1.5zm7.714 0c1.126 0 2.036-.91 2.036-2.036h-1.5a.534.534 0 01-.536.536v1.5zm2.036-2.036V4.286h-1.5v11.571h1.5zm0-11.571c0-1.126-.91-2.036-2.036-2.036v1.5c.297 0 .536.239.536.536h1.5zM19.714 2.25H4.286v1.5h15.428v-1.5zm-15.428 0c-1.125 0-2.036.91-2.036 2.036h1.5c0-.297.239-.536.536-.536v-1.5zM2.25 4.286v11.571h1.5V4.286h-1.5zm0 11.571c0 1.125.91 2.036 2.036 2.036v-1.5a.534.534 0 01-.536-.536h-1.5zm2.036 2.036h2.571v-1.5H4.286v1.5zm3.857-9h7.714v-1.5H8.143v1.5zm0 3.857h5.143v-1.5H8.143v1.5z" fill="#000"/>
</svg>
