<svg width="24" height="24" viewBox="0 0 24 24" fill="none" xmlns="http://www.w3.org/2000/svg">
<circle cx="12" cy="12" r="12" fill="#007BB3"/>
<path d="M10.8294 16.6889L17.7543 9.48898H17.7562C17.8421 9.3996 17.9077 9.29586 17.949 9.18369C17.9904 9.07152 18.0069 8.9531 17.9974 8.83522C17.9879 8.71733 17.9528 8.60227 17.8939 8.49661C17.835 8.39096 17.7536 8.29677 17.6543 8.21943C17.555 8.14209 17.4397 8.08311 17.3151 8.04586C17.1905 8.00861 17.0589 7.99382 16.9279 8.00234C16.7969 8.01085 16.6691 8.0425 16.5517 8.09548C16.4343 8.14846 16.3297 8.22173 16.2437 8.31111L10.0126 14.7871L7.70013 12.7458C7.51067 12.5788 7.25522 12.4862 6.98998 12.4887C6.72474 12.4911 6.47143 12.5883 6.28579 12.7588C6.10014 12.9293 5.99736 13.1592 6.00005 13.3979C6.00139 13.5161 6.02858 13.6329 6.08007 13.7417C6.13156 13.8504 6.20635 13.949 6.30016 14.0317L9.3751 16.7429C9.56206 16.9078 9.81337 17.0001 10.0751 17H10.1163C10.2525 16.9946 10.386 16.9642 10.5086 16.9108C10.6312 16.8573 10.7404 16.7818 10.8294 16.6889Z" fill="white"/>
</svg>
