<svg width="24" height="24" viewBox="0 0 24 24" fill="none" xmlns="http://www.w3.org/2000/svg">
<path d="M12.0001 0.0499573C5.37268 0.0499573 0 5.42264 0 12.05C0 17.994 4.32626 22.9166 9.9987 23.8699V14.5536H7.10393V11.201H9.9987V8.72896C9.9987 5.86068 11.7506 4.29763 14.3096 4.29763C15.5353 4.29763 16.5886 4.38896 16.8944 4.42918V7.42731L15.1194 7.42816C13.728 7.42816 13.4598 8.08923 13.4598 9.05964V11.1993H16.7798L16.3468 14.5519H13.4598V23.95C19.397 23.2274 24 18.1794 24 12.0466C24 5.42264 18.6273 0.0499573 12.0001 0.0499573Z" fill="white"/>
</svg>
