<?xml version="1.0" encoding="UTF-8"?>
<svg  xmlns="http://www.w3.org/2000/svg">
<symbol id="icon-url" viewBox="0 0 22 22" fill="none" xmlns="http://www.w3.org/2000/svg">
  <path d="M8.943 12a5 5 0 007.54.54l3-3a5 5 0 00-7.07-7.07l-1.72 1.71" stroke-width="2" stroke-linecap="round" stroke-linejoin="round" stroke=""/>
  <path d="M12.944 10a5 5 0 00-7.54-.54l-3 3a5 5 0 007.07 7.07l1.71-1.71" stroke-width="2" stroke-linecap="round" stroke-linejoin="round" stroke=""/>  
</symbol>
<symbol id="icon-delete" fill="none" xmlns="http://www.w3.org/2000/svg" viewBox="0 0 18 21">
  <path d="M1 4.796h16M5.44 4.897v-1.82c0-.483.187-.946.52-1.288a1.757 1.757 0 011.258-.533h3.555c.472 0 .924.192 1.258.533.333.342.52.805.52 1.288v1.82m2.667 0v12.746c0 .483-.187.946-.52 1.288a1.757 1.757 0 01-1.258.533H4.551c-.471 0-.923-.192-1.257-.533a1.843 1.843 0 01-.52-1.288V4.897h12.444zM7.22 9.45v5.462M11 9.155v5.462" stroke="" stroke-width="1.5" stroke-linecap="round" stroke-linejoin="round"/>
</symbol>
<symbol id="icon-trash-16" fill="none" xmlns="http://www.w3.org/2000/svg" viewBox="0 0 16 16">
  <path d="M2 3.723h12.302M5.414 3.8V2.4c0-.371.144-.727.4-.99A1.35 1.35 0 0 1 6.781 1h2.733c.363 0 .71.147.967.41.256.263.4.619.4.99v1.4m2.05 0v9.8c0 .371-.143.727-.4.99a1.35 1.35 0 0 1-.966.41H4.73a1.35 1.35 0 0 1-.966-.41 1.417 1.417 0 0 1-.4-.99V3.8h9.568ZM6.781 7.3v4.2M9.69 7.073v4.2" stroke="currentColor" stroke-width="1.5" stroke-linecap="round" stroke-linejoin="round"/>
</symbol>

<symbol id="icon-placeholder" xmlns="http://www.w3.org/2000/svg" viewBox="0 0 32 32">
  <path fill-rule="evenodd" clip-rule="evenodd" d="M2.417 12.333c0-5.476 4.44-9.916 9.916-9.916 5.477 0 9.917 4.44 9.917 9.916 0 5.477-4.44 9.917-9.917 9.917-5.477 0-9.916-4.44-9.916-9.917zM12.333.917C6.028.917.917 6.028.917 12.333c0 6.306 5.111 11.417 11.416 11.417 6.306 0 11.417-5.111 11.417-11.417C23.75 6.028 18.639.917 12.333.917zm14.377 9.965l-.623-.419-.837 1.245.623.418a9.904 9.904 0 11-13.747 13.747l-.418-.623-1.245.837.419.623A11.405 11.405 0 1026.71 10.882z" fill=""/>
</symbol>
<symbol id="icon-share" fill="none" xmlns="http://www.w3.org/2000/svg" viewBox="0 0 18 20">
  <path d="M16.857 9.996L9.563 2v4.79h-.847a7.808 7.808 0 00-5.557 2.3 7.803 7.803 0 00-2.302 5.555V18l1.4-1.533a10.047 10.047 0 017.306-3.265v4.79l7.294-7.996z" stroke="" stroke-width="1.5" stroke-linecap="round"/>
</symbol>
<symbol id="icon-edit" fill="none" xmlns="http://www.w3.org/2000/svg" viewBox="0 0 24 24">
  <path d="M17.643 1.92a3.138 3.138 0 114.438 4.437L7.102 21.336 1 23l1.664-6.102L17.643 1.919z" stroke="currentColor" stroke-width="1.95" stroke-linecap="round" stroke-linejoin="round"/>
</symbol>
<symbol id="icon-upload" xmlns="http://www.w3.org/2000/svg" viewBox="0 0 152 120">
  <path d="M77.068 50.968a1.357 1.357 0 00-1.663-.385c-.185.09-.348.223-.475.386l-19 24.152a1.364 1.364 0 00.35 1.993c.216.135.465.206.72.206h12.536v41.316c0 .75.61 1.363 1.357 1.363h10.178c.747 0 1.358-.613 1.358-1.363v-41.3h12.57c1.137 0 1.764-1.312 1.069-2.198l-19-24.17z" fill=""/>
  <path d="M126.791 35.231C119.021 14.641 99.224 0 76.034 0c-23.19 0-42.988 14.624-50.757 35.214C10.738 39.05 0 52.361 0 68.178c0 18.835 15.183 34.09 33.912 34.09h6.802c.747 0 1.357-.614 1.357-1.364V90.677c0-.75-.61-1.363-1.357-1.363h-6.802c-5.717 0-11.095-2.284-15.099-6.426-3.986-4.125-6.107-9.681-5.92-15.443a21.03 21.03 0 014.444-12.289c2.834-3.63 6.803-6.272 11.214-7.448l6.43-1.688 2.357-6.238a41.038 41.038 0 016.057-10.806 41.747 41.747 0 018.889-8.505c6.972-4.926 15.183-7.534 23.75-7.534s16.778 2.608 23.75 7.534a41.748 41.748 0 018.889 8.505 41.271 41.271 0 016.056 10.806l2.342 6.221 6.412 1.705c9.195 2.488 15.624 10.891 15.624 20.47 0 5.642-2.188 10.96-6.158 14.948a20.883 20.883 0 01-6.813 4.59 20.794 20.794 0 01-8.048 1.598h-6.802c-.747 0-1.357.613-1.357 1.363v10.227c0 .75.61 1.364 1.357 1.364h6.802c18.729 0 33.912-15.255 33.912-34.09 0-15.8-10.704-29.095-25.209-32.947z" fill=""/>
</symbol>
<symbol id="icon-download" fill="none" xmlns="http://www.w3.org/2000/svg" viewBox="0 0 17 17">
  <path d="M11 11.322h1.576a3.136 3.136 0 000-6.271c-.017 0-.032.004-.049.005a4.387 4.387 0 00-8.73.622c0 .215.02.425.05.632-.017 0-.033-.005-.05-.005a2.508 2.508 0 000 5.017H5M6.5 14l1.71 1.711m0 0L10 14m-1.79 1.711V6.305" stroke="" stroke-width="1.5" stroke-linecap="round" stroke-linejoin="round"/>
</symbol>
<symbol id="icon-add-img-cross" xmlns="http://www.w3.org/2000/svg" viewBox="0 0 40 40">
  <rect x="18" width="4" height="40" rx="2" fill=""/>
  <rect x="40" y="18" width="4" height="40" rx="2" transform="rotate(90 40 18)" fill=""/>
</symbol>
<symbol id="icon-arrow" xmlns="http://www.w3.org/2000/svg" viewBox="0 0 17 16">
  <path fill-rule="evenodd" clip-rule="evenodd" d="M13.19 8.75H0v-1.5h13.19L9.47 3.53l1.06-1.06 5 5 .53.53-.53.53-5 5-1.06-1.06 3.72-3.72z" fill=""/>
</symbol>
<symbol id="icon-arrow-left" xmlns="http://www.w3.org/2000/svg" viewBox="0 0 17 16">
  <path fill-rule="evenodd" clip-rule="evenodd" d="M2.871 8.75h13.19v-1.5H2.87l3.72-3.72-1.06-1.06-5 5L0 8l.53.53 5 5 1.061-1.06-3.72-3.72z" fill=""/>
</symbol>
<symbol id="icon-arrow-back-24" width="24" height="24" viewBox="0 0 24 24" xmlns="http://www.w3.org/2000/svg">
  <path fill-rule="evenodd" clip-rule="evenodd" d="M1.5 12.501l6.98-7.56L9.58 5.96 4.235 11.75h17.787v1.5H4.233l5.347 5.793L8.48 20.06l-6.978-7.56z" fill="currentColor"/>
</symbol>
<symbol id="icon-right" xmlns="http://www.w3.org/2000/svg" viewBox="0 0 8 16">
  <path fill-rule="evenodd" clip-rule="evenodd" d="M6.054 8L1.406 1.958l1.189-.915L7.946 8l-5.351 6.957-1.19-.914L6.055 8z" fill="currentColor"/>
</symbol>
<symbol id="icon-rotate" viewBox="0 0 36 38" fill="none" xmlns="http://www.w3.org/2000/svg">
<path d="M0.692383 25.7734L11.2275 36.3086L21.7626 25.7734" stroke="" stroke-width="1.5"/>
<path d="M11.2275 36.3068V25.7717C11.2275 12.4718 22.008 1.69141 35.3078 1.69141" stroke="" stroke-width="1.5"/>
</symbol>
<symbol id="icon-alert" fill="none" xmlns="http://www.w3.org/2000/svg" viewBox="0 0 24 24">
  <circle cx="12" cy="12" r="12" fill="#D10000"/>
  <path d="M12 6.75V15" stroke="#fff" stroke-width="2"/>
  <path d="M12 16.875v1.5" stroke="#fff" stroke-width="2" stroke-linejoin="round"/>
</symbol>
<symbol id="icon-alert-current-color" xmlns="http://www.w3.org/2000/svg" viewBox="0 0 24 24">
  <circle cx="12" cy="12" r="12"/>
  <path d="M12 6.75V15" stroke="#fff" stroke-width="2"/>
  <path d="M12 16.875v1.5" stroke="#fff" stroke-width="2" stroke-linejoin="round"/>
</symbol>
<symbol id="icon-alert-custom" xmlns="http://www.w3.org/2000/svg" viewBox="0 0 24 24">
  <circle cx="12" cy="12" r="12" stroke="none"/>
  <path d="M12 6.75V15" stroke-width="2"/>
  <path d="M12 16.875v1.5" stroke-width="2" stroke-linejoin="round"/>
</symbol>
<symbol id="icon-warning" xmlns="http://www.w3.org/2000/svg" viewBox="0 0 24 24">
  <path fill-rule="evenodd" clip-rule="evenodd" d="M22.697 20.91A2.21 2.21 0 0 1 20.788 22H3.212a2.21 2.21 0 0 1-1.909-1.09 2.195 2.195 0 0 1-.02-2.191c1.077-1.912 2.722-4.955 4.372-8.008C7.311 7.65 8.972 4.576 10.07 2.625a2.216 2.216 0 0 1 3.86 0c1.098 1.951 2.76 5.024 4.415 8.086 1.65 3.053 3.295 6.097 4.372 8.008a2.195 2.195 0 0 1-.02 2.191Zm-20.121-.742a.739.739 0 0 0 .636.364h17.576a.739.739 0 0 0 .636-.364.729.729 0 0 0 .006-.73c-1.07-1.901-2.703-4.922-4.345-7.959-1.664-3.078-3.338-6.173-4.442-8.134a.738.738 0 0 0-1.286 0c-1.104 1.96-2.778 5.056-4.442 8.134-1.642 3.037-3.275 6.058-4.345 7.96a.729.729 0 0 0 .006.73Zm9.982-5.964a.098.098 0 0 1 .001.081l-1.636 3.617-.006.015a.717.717 0 0 0 1.27.64l2.583-5.203a.097.097 0 0 0-.062-.138l-3.032-.827a.097.097 0 0 1-.064-.054.1.1 0 0 1 0-.083 9118.833 9118.833 0 0 1 1.688-3.58.098.098 0 0 0 0-.081.1.1 0 0 0-.06-.054l-.619-.182-.826-.244a.097.097 0 0 0-.117.054l-2.27 5.027a.098.098 0 0 0 .064.134l1.515.414 1.508.411c.028.008.05.027.063.053Z" fill="currentColor"/>
</symbol>
<symbol id="icon-close" viewBox="0 0 13 13" xmlns="http://www.w3.org/2000/svg">
<path fill-rule="evenodd" clip-rule="evenodd" d="M11 -6.10352e-05L12.4142 1.41415L7.621 6.20694L12.4142 10.9999L11 12.4142L6.207 7.62094L1.41421 12.4142L0 10.9999L4.793 6.20694L0 1.41415L1.41421 -6.10352e-05L6.207 4.79294L11 -6.10352e-05Z" fill=""/>
</symbol>
<symbol id="icon-close-14-14" xmlns="http://www.w3.org/2000/svg" viewBox="0 0 14 14">
  <rect x="12.877" width="1.518" height="18.216" rx=".759" transform="rotate(44.776 12.877 0)" fill="currentColor"/>
  <rect x="14" y="12.875" width="1.518" height="18.216" rx=".759" transform="rotate(134.776 14 12.875)" fill="currentColor"/>
</symbol>
<symbol id="icon-close-16" fill="none" xmlns="http://www.w3.org/2000/svg" viewBox="0 0 16 16">
  <path fill-rule="evenodd" clip-rule="evenodd" d="M6.938 8l-4.47 4.47 1.061 1.06L8 9.06l4.47 4.47 1.06-1.06L9.06 8l4.47-4.47-1.06-1.06-4.47 4.47-4.47-4.47-1.06 1.06L6.939 8z" fill="currentColor"/>
</symbol>

<symbol id="icon-search" xmlns="http://www.w3.org/2000/svg" viewBox="0 0 16 16">
  <path fill-rule="evenodd" clip-rule="evenodd" d="M2 7a5.25 5.25 0 1110.5 0A5.25 5.25 0 012 7zm9.463 5.274a6.75 6.75 0 111.06-1.06l3.257 3.256a.75.75 0 01-1.06 1.06l-3.257-3.256z" fill=""/>
</symbol>
<symbol id="icon-form-item-clear" viewBox="0 0 32 32" fill="none" xmlns="http://www.w3.org/2000/svg">
    <circle cx="16" cy="16" r="16" fill="currentColor"/>
    <path d="M16.7476 16.0404L21.4142 11.3738L20.7071 10.6667L16.0405 15.3333L11.3738 10.6667L10.6667 11.3738L15.3334 16.0404L10.6667 20.7071L11.3738 21.4142L16.0405 16.7476L20.7071 21.4142L21.4142 20.7071L16.7476 16.0404Z" fill="#fff"/>
</symbol>
<symbol id="icon-notification" xmlns="http://www.w3.org/2000/svg" viewBox="0 0 16 17">
  <path fill-rule="evenodd" clip-rule="evenodd" d="M8 .25A4.95 4.95 0 003.05 5.2v.276A2.966 2.966 0 011.568 8.05C.92 8.422.25 9.013.25 9.868c0 .65.396 1.15.836 1.497.448.353 1.05.638 1.727.864 1.362.454 3.196.722 5.187.722s3.825-.268 5.187-.722c.677-.226 1.279-.51 1.727-.864.44-.347.836-.847.836-1.497 0-.855-.67-1.446-1.317-1.817h-.001a2.965 2.965 0 01-1.482-2.574V5.2A4.95 4.95 0 008 .25zM4.55 5.2a3.45 3.45 0 016.9 0v.276c0 1.593.847 3.08 2.236 3.875.25.144.404.275.488.377.04.05.06.085.068.106.008.02.008.03.008.033 0 .003 0 .026-.031.078a.99.99 0 01-.233.241c-.26.205-.684.423-1.274.62-1.171.39-2.837.644-4.712.644-1.875 0-3.541-.254-4.713-.645-.59-.196-1.012-.414-1.273-.619a.99.99 0 01-.233-.241c-.031-.052-.031-.075-.031-.078 0-.004 0-.013.008-.033a.427.427 0 01.068-.106c.084-.102.237-.233.488-.377A4.466 4.466 0 004.55 5.476V5.2zm6.276 9a.75.75 0 10-1.374-.6 1.584 1.584 0 01-2.904 0 .75.75 0 00-1.374.602 3.086 3.086 0 005.652-.002z" fill=""/>
</symbol>
<symbol id="icon-notification-full" fill="none" xmlns="http://www.w3.org/2000/svg" viewBox="0 0 32 32">
  <path fill-rule="evenodd" clip-rule="evenodd" d="M16 8.25a4.95 4.95 0 00-4.95 4.95v.276a2.966 2.966 0 01-1.482 2.573c-.647.372-1.318.963-1.318 1.818 0 .65.396 1.15.836 1.497.448.353 1.05.639 1.727.864 1.362.454 3.196.722 5.187.722s3.825-.268 5.187-.722c.677-.226 1.279-.51 1.727-.864.44-.347.836-.847.836-1.497 0-.855-.67-1.446-1.317-1.817h-.001a2.965 2.965 0 01-1.482-2.574V13.2A4.95 4.95 0 0016 8.25zm-3.45 4.95a3.45 3.45 0 016.9 0v.276c0 1.593.847 3.08 2.236 3.875.25.143.404.275.488.377.04.05.06.085.068.106.008.02.008.03.008.033 0 .003 0 .026-.031.078a.99.99 0 01-.233.241c-.26.205-.684.423-1.274.62-1.171.39-2.837.644-4.712.644-1.875 0-3.541-.254-4.713-.645-.59-.196-1.012-.414-1.273-.619a.989.989 0 01-.233-.241c-.031-.052-.031-.075-.031-.078 0-.004 0-.013.008-.033a.428.428 0 01.068-.106c.084-.102.237-.234.488-.377a4.466 4.466 0 002.236-3.875V13.2zm6.276 9a.75.75 0 10-1.374-.6 1.584 1.584 0 01-2.904 0 .75.75 0 10-1.374.602 3.086 3.086 0 005.652-.002z" fill="#090A0B"/>
</symbol>
<symbol id="icon-notification-full-dot" fill="none" xmlns="http://www.w3.org/2000/svg" viewBox="0 0 32 32">
  <path fill-rule="evenodd" clip-rule="evenodd" d="M16 8.25a4.95 4.95 0 00-4.95 4.95v.276a2.966 2.966 0 01-1.482 2.573c-.647.372-1.318.963-1.318 1.818 0 .65.396 1.15.836 1.497.448.353 1.05.639 1.727.864 1.362.454 3.196.722 5.187.722s3.825-.268 5.187-.722c.677-.226 1.279-.51 1.727-.864.44-.347.836-.847.836-1.497 0-.855-.67-1.446-1.317-1.817h-.001a2.965 2.965 0 01-1.482-2.574V13.2A4.95 4.95 0 0016 8.25zm-3.45 4.95a3.45 3.45 0 016.9 0v.276c0 1.593.847 3.08 2.236 3.875.25.143.404.275.488.377.04.05.06.085.068.106.008.02.008.03.008.033 0 .003 0 .026-.031.078a.99.99 0 01-.233.241c-.26.205-.684.423-1.274.62-1.171.39-2.837.644-4.712.644-1.875 0-3.541-.254-4.713-.645-.59-.196-1.012-.414-1.273-.619a.989.989 0 01-.233-.241c-.031-.052-.031-.075-.031-.078 0-.004 0-.013.008-.033a.428.428 0 01.068-.106c.084-.102.237-.234.488-.377a4.466 4.466 0 002.236-3.875V13.2zm6.276 9a.75.75 0 10-1.374-.6 1.584 1.584 0 01-2.904 0 .75.75 0 10-1.374.602 3.086 3.086 0 005.652-.002z" fill="#090A0B"/>
  <circle cx="22" cy="9" r="5" fill="#00D3A1" stroke="#fff" stroke-width="2"/>
</symbol>
<symbol id="icon-facebook" fill="none" xmlns="http://www.w3.org/2000/svg" viewBox="0 0 24 24">
  <path fill-rule="evenodd" clip-rule="evenodd" d="M9.032 23L9 13H5V9h4V6.5C9 2.789 11.298 1 14.61 1c1.585 0 2.948.118 3.345.17v3.88H15.66c-1.8 0-2.15.856-2.15 2.112V9h5.241l-2 4h-3.24v10H9.032z" fill="currentColor"/>
</symbol>
<symbol id="icon-instagram" fill="none" xmlns="http://www.w3.org/2000/svg" viewBox="0 0 24 24">
  <path fill-rule="evenodd" clip-rule="evenodd" d="M7.052.072C8.332.014 8.741 0 12 0c3.259 0 3.668.014 4.948.072 1.95.089 3.663.567 5.038 1.942 1.375 1.375 1.853 3.088 1.942 5.038C23.986 8.332 24 8.741 24 12c0 3.259-.014 3.668-.072 4.948-.089 1.95-.567 3.663-1.942 5.038-1.375 1.375-3.088 1.853-5.038 1.942-1.28.058-1.689.072-4.948.072-3.259 0-3.668-.014-4.948-.072-1.95-.089-3.663-.567-5.038-1.942C.639 20.611.161 18.898.072 16.948.014 15.668 0 15.259 0 12c0-3.259.014-3.668.072-4.948.089-1.95.567-3.663 1.942-5.038C3.389.639 5.102.161 7.052.072zm9.797 2.16c-1.265-.058-1.645-.07-4.849-.07s-3.584.012-4.849.07c-1.366.062-2.633.336-3.608 1.311-.975.975-1.249 2.242-1.311 3.608-.058 1.265-.07 1.645-.07 4.849s.012 3.584.07 4.849c.062 1.366.336 2.633 1.311 3.608.975.975 2.242 1.249 3.608 1.311 1.265.058 1.645.07 4.849.07s3.584-.012 4.849-.07c1.366-.062 2.633-.336 3.608-1.311.975-.975 1.249-2.242 1.311-3.608.058-1.265.07-1.645.07-4.849s-.012-3.584-.07-4.849c-.062-1.366-.336-2.633-1.311-3.608-.975-.975-2.242-1.249-3.608-1.311zM5.838 12a6.162 6.162 0 1112.324 0 6.162 6.162 0 01-12.324 0zM8 12a4 4 0 108 0 4 4 0 00-8 0zm11.846-6.406a1.44 1.44 0 11-2.88 0 1.44 1.44 0 012.88 0z" fill="currentColor"/>
</symbol>
<symbol id="icon-twitter" fill="none" xmlns="http://www.w3.org/2000/svg" viewBox="0 0 24 20">
  <path fill-rule="evenodd" clip-rule="evenodd" d="M24 2.6c-.9.4-1.8.7-2.8.8 1-.6 1.8-1.6 2.2-2.7-1 .6-2 1-3.1 1.2-.9-1-2.2-1.6-3.6-1.6-2.7 0-4.9 2.2-4.9 4.9 0 .4 0 .8.1 1.1-4.2-.2-7.8-2.2-10.2-5.2-.5.8-.7 1.6-.7 2.5 0 1.7.9 3.2 2.2 4.1-.8 0-1.6-.2-2.2-.6v.1c0 2.4 1.7 4.4 3.9 4.8-.4.1-.8.2-1.3.2-.3 0-.6 0-.9-.1.6 2 2.4 3.4 4.6 3.4-1.7 1.3-3.8 2.1-6.1 2.1-.4 0-.8 0-1.2-.1 2.2 1.4 4.8 2.2 7.5 2.2 9.1 0 14-7.5 14-14v-.6c1-.7 1.8-1.6 2.5-2.5z" fill="currentColor"/>
</symbol>
<symbol id="icon-youtube" fill="none" xmlns="http://www.w3.org/2000/svg" viewBox="0 0 24 24">
  <path fill-rule="evenodd" clip-rule="evenodd" d="M12 24c6.627 0 12-5.373 12-12S18.627 0 12 0 0 5.373 0 12s5.373 12 12 12zM6.462 7.385a.923.923 0 100 1.846h11.077a.923.923 0 100-1.846H6.462zm0 2.769a.923.923 0 000 1.846H12a.923.923 0 000-1.846H6.462zM12 12.924a.923.923 0 100 1.845h5.539a.923.923 0 000-1.846H12zm-5.538 2.768a.923.923 0 000 1.846h8.307a.923.923 0 000-1.846H6.462zm-.923-1.846c0-.51.413-.923.923-.923H9.23a.923.923 0 110 1.846H6.46a.923.923 0 01-.922-.923zm8.307-2.77c0-.509.413-.922.923-.922h2.77a.923.923 0 010 1.846h-2.77a.923.923 0 01-.923-.923z" fill="currentColor"/>
</symbol>
<symbol id="icon-linkedin" viewBox="0 0 16 16">
    <title>LinkedIn</title>
    <path fill-rule="evenodd" d="M15.3 0H.7C.3 0 0 .3 0 .7v14.7c0 .3.3.6.7.6h14.7c.4 0 .7-.3.7-.7V.7c-.1-.4-.4-.7-.8-.7zM4.7 13.6H2.4V6h2.4v7.6h-.1zM3.6 5c-.8 0-1.4-.7-1.4-1.4 0-.8.6-1.4 1.4-1.4.8 0 1.4.6 1.4 1.4-.1.7-.7 1.4-1.4 1.4zm10 8.6h-2.4V9.9c0-.9 0-2-1.2-2s-1.4 1-1.4 2v3.8H6.2V6h2.3v1c.3-.6 1.1-1.2 2.2-1.2 2.4 0 2.8 1.6 2.8 3.6v4.2h.1z"/>
</symbol>
<symbol id="icon-email" viewBox="0 0 16 16">
    <title>Email</title>
    <path fill-rule="evenodd" d="M0,5.695 L2,6.82 L2,13 L14,13 L14,6.883 L16,5.783 L16,14 C16,14.553 15.552,15 15,15 L15,15 L1,15 C0.448,15 0,14.553 0,14 L0,14 L0,5.695 Z M15,1 C15.6,1 16,1.4 16,2 L16,2 L16,3.5 L8,7.9 L0,3.4 L0,2 C0,1.4 0.4,1 1,1 L1,1 Z"/>
</symbol>
<symbol id="icon-tooltip" xmlns="http://www.w3.org/2000/svg" viewBox="0 0 12 12">
  <path fill-rule="evenodd" clip-rule="evenodd" d="M6 0C2.7 0 0 2.7 0 6s2.7 6 6 6 6-2.7 6-6-2.7-6-6-6zm0 9.75c-.45 0-.75-.3-.75-.75s.3-.75.75-.75.75.3.75.75-.3.75-.75.75zM7.125 6.3c-.375.225-.375.3-.375.45v.75h-1.5v-.75c0-.975.6-1.425 1.05-1.725.375-.225.45-.3.45-.525 0-.45-.3-.75-.75-.75-.3 0-.525.15-.675.375L4.95 4.8l-1.275-.75.375-.675A2.238 2.238 0 016 2.25c1.275 0 2.25.975 2.25 2.25 0 1.05-.675 1.5-1.125 1.8z" fill=""/>
</symbol>
<symbol id="icon-check-complete" fill="none" xmlns="http://www.w3.org/2000/svg" viewBox="0 0 32 32">
  <circle cx="16" cy="16" r="16" fill="#0C9"/>
  <path d="M9.5 16.5l4.455 4.5L23.5 11" stroke="#fff" stroke-width="1.5" stroke-miterlimit="10"/>
</symbol>
<symbol id="icon-check-complete-outline-24" fill="none" xmlns="http://www.w3.org/2000/svg" viewBox="0 0 24 24">
  <path fill-rule="evenodd" clip-rule="evenodd" d="M2 12C2 6.48 6.48 2 12 2s10 4.48 10 10-4.48 10-10 10S2 17.52 2 12Zm18.537 0c0-4.712-3.825-8.537-8.537-8.537-4.712 0-8.537 3.825-8.537 8.537 0 4.712 3.825 8.537 8.537 8.537 4.712 0 8.537-3.825 8.537-8.537Zm-10.394 3.31a.095.095 0 0 1-.069-.03L6.85 12.017a.098.098 0 0 0-.138 0l-.45.446-.45.447a.098.098 0 0 0 0 .137l4.253 4.305a.098.098 0 0 0 .138 0c.368-.366 2.144-2.13 3.92-3.897l3.926-3.902a.098.098 0 0 0 0-.138l-.445-.45-.446-.45a.098.098 0 0 0-.138 0l-6.808 6.766a.096.096 0 0 1-.069.028Z" fill="#00AD82"/>
</symbol>
<symbol id="icon-exclamation-mark" xmlns="http://www.w3.org/2000/svg" viewBox="0 0 24 24">
  <path fill-rule="evenodd" clip-rule="evenodd" d="M18.373 2A3.627 3.627 0 0122 5.628v12.744A3.628 3.628 0 0118.373 22H5.627A3.628 3.628 0 012 18.372V5.628A3.628 3.628 0 015.627 2h12.746zm2.255 16.372V5.628a2.255 2.255 0 00-2.255-2.255H5.627a2.255 2.255 0 00-2.255 2.255v12.744a2.255 2.255 0 002.255 2.255h12.746a2.255 2.255 0 002.255-2.255zm-8.629-9.804a1.226 1.226 0 100-2.451 1.226 1.226 0 000 2.45zm.638 9.705a.098.098 0 00.098-.098v-8.02a.098.098 0 00-.098-.099h-1.275a.098.098 0 00-.098.098v8.021c0 .055.044.098.098.098h1.275z" fill="#090A0B"/>
</symbol>
<symbol id="icon-clear" fill="none" xmlns="http://www.w3.org/2000/svg" viewBox="0 0 48 48">
  <circle cx="24" cy="24" r="23.25" stroke="#D10000" stroke-width="1.5"/>
  <path d="M16 16l16 16m0-16L16 32" stroke="#D10000" stroke-width="1.5" stroke-miterlimit="10" stroke-linecap="square"/>
</symbol>
<!-- <symbol id="icon-clear-field" xmlns="http://www.w3.org/2000/svg" viewBox="0 0 24 24">
  <circle cx="12" cy="12" r="12" fill=""/>
  <path d="M12.526 12L16 8.526 15.474 8 12 11.474 8.526 8 8 8.526 11.474 12 8 15.474l.526.526L12 12.526 15.474 16l.526-.526L12.526 12z" fill="#fff"/>
</symbol> -->
<symbol id="icon-clear-field" xmlns="http://www.w3.org/2000/svg" viewBox="0 0 16 16">
  <path fill-rule="evenodd" clip-rule="evenodd" d="M6.94 8l-4.47 4.469 1.06 1.06L8 9.06l4.47 4.47 1.06-1.06-4.47-4.47 4.47-4.47-1.06-1.06L8 6.939l-4.47-4.47-1.06 1.06L6.94 8z" fill="currentColor"/>
</symbol>

<symbol id="icon-check-complete-outline" fill="none" xmlns="http://www.w3.org/2000/svg" viewBox="0 0 48 48">
  <circle cx="24" cy="24" r="23.25" stroke="#0C9" stroke-width="1.5"/>
  <path d="M14.25 24.75l6.682 6.75 14.318-15" stroke="#0C9" stroke-width="1.5" stroke-miterlimit="10"/>
</symbol>
<symbol id="icon-check-complete-outline-32" fill="none" xmlns="http://www.w3.org/2000/svg" viewBox="0 0 32 32">
  <path fill-rule="evenodd" clip-rule="evenodd" d="M2.667 16C2.667 8.641 8.64 2.667 16 2.667S29.333 8.64 29.333 16c0 7.36-5.974 13.333-13.333 13.333C8.64 29.333 2.666 23.36 2.666 16Zm24.715 0c0-6.282-5.1-11.382-11.382-11.382S4.618 9.718 4.618 16 9.718 27.382 16 27.382 27.382 22.282 27.382 16Zm-13.858 4.412a.127.127 0 0 1-.092-.038l-4.299-4.35a.13.13 0 0 0-.184-.002l-.6.596-.599.595a.13.13 0 0 0-.002.183l5.672 5.74a.132.132 0 0 0 .091.038.133.133 0 0 0 .093-.038l5.228-5.197 5.233-5.201a.13.13 0 0 0 0-.184l-.594-.6c-.234-.238-.47-.475-.594-.6a.13.13 0 0 0-.184-.001l-9.077 9.022a.127.127 0 0 1-.092.037Z" fill="#00AD82"/>
</symbol>
<symbol id="icon-check-small" xmlns="http://www.w3.org/2000/svg" viewBox="0 0 12 12">
  <circle cx="6" cy="6" r="6"/>
  <path d="M3.563 6.188l1.67 1.687 3.58-3.75" stroke="#fff" stroke-width="1.5" stroke-miterlimit="10"/>
</symbol>
<symbol id="icon-check-18-12" fill="none" xmlns="http://www.w3.org/2000/svg" viewBox="0 0 18 12">
  <path d="M17.047 1.513A.75.75 0 0015.953.487l1.094 1.026zm-10.172 9.18l-.497.561a.75.75 0 001.023-.027l-.526-.535zM1.497 4.937a.75.75 0 00-.994 1.124l.994-1.124zM15.953.487c-1.357 1.445-3.754 3.86-5.82 5.92a900.507 900.507 0 01-3.706 3.674l-.058.057-.015.015-.004.003v.001l.525.535.526.535.001-.001.004-.004.015-.015.058-.057.224-.22a783.454 783.454 0 003.489-3.461c2.063-2.058 4.478-4.49 5.855-5.956L15.953.487zM7.372 10.13L1.497 4.938.503 6.062l5.875 5.192.994-1.124z" fill="currentColor"/>
</symbol>
<symbol id="icon-help" fill="none" xmlns="http://www.w3.org/2000/svg" viewBox="0 0 12 12">
  <path fill-rule="evenodd" clip-rule="evenodd" d="M6 0C2.7 0 0 2.7 0 6s2.7 6 6 6 6-2.7 6-6-2.7-6-6-6zm0 9.75c-.45 0-.75-.3-.75-.75s.3-.75.75-.75.75.3.75.75-.3.75-.75.75zM7.125 6.3c-.375.225-.375.3-.375.45v.75h-1.5v-.75c0-.975.6-1.425 1.05-1.725.375-.225.45-.3.45-.525 0-.45-.3-.75-.75-.75-.3 0-.525.15-.675.375L4.95 4.8l-1.275-.75.375-.675A2.238 2.238 0 016 2.25c1.275 0 2.25.975 2.25 2.25 0 1.05-.675 1.5-1.125 1.8z" fill="#B1B5B9"/>
</symbol>
<symbol id="icon-star-watch" fill="none" xmlns="http://www.w3.org/2000/svg" viewBox="0 0 24 25">
  <path d="M11.991 2.518a.01.01 0 01.018 0l3.079 6.237a.01.01 0 00.007.006l6.885 1a.01.01 0 01.005.017l-4.981 4.856a.01.01 0 00-.003.01l1.176 6.856a.01.01 0 01-.015.01l-6.157-3.236a.01.01 0 00-.01 0l-6.157 3.237a.01.01 0 01-.015-.011L7 14.643a.01.01 0 00-.003-.009L2.015 9.778a.01.01 0 01.005-.017l6.885-1a.01.01 0 00.007-.006l3.079-6.237z" stroke-width="1.5" stroke-miterlimit="10" stroke-linecap="square"/>
</symbol>
<symbol id="dash-border" fill="none" xmlns="http://www.w3.org/2000/svg">
<rect x="0" y="0" width="100%" height="100%" rx="4.5" stroke-dasharray="10 10"/>
</symbol>
<symbol id="dash-border-circle" fill="none" xmlns="http://www.w3.org/2000/svg" viewBox="0 0 500 500">
  <!-- <circle cx="250" cy="250" r="250" fill="none"/> -->
  <circle cx="50%" cy="50%" r="249.5" stroke-dasharray="10 10"/>
</symbol>
<symbol id="icon-location" xmlns="http://www.w3.org/2000/svg" viewBox="0 0 16 16">
  <path fill-rule="evenodd" clip-rule="evenodd" d="M3.967 8.107c-1.534-3.58.99-6.575 4-6.575s5.534 2.995 4 6.575c-.842 1.965-1.968 3.535-2.886 4.615-.44.517-.83.919-1.114 1.195a17.409 17.409 0 01-1.114-1.195c-.918-1.08-2.044-2.65-2.886-4.615zm3.521 7.405l.479-.577-.479.577c.278.23.68.23.957 0l-.478-.577.479.577.001-.001.003-.003.009-.007.03-.025.106-.094c.09-.08.22-.198.378-.351.318-.307.756-.757 1.25-1.338.987-1.16 2.206-2.856 3.123-4.995C15.328 4.071 11.99.032 7.966.032c-4.023 0-7.36 4.04-5.378 8.666.917 2.139 2.136 3.835 3.122 4.995.495.581.933 1.031 1.25 1.338a12.854 12.854 0 00.485.444l.03.026.009.007.003.003h.001zM6.717 6a1.25 1.25 0 112.5 0 1.25 1.25 0 01-2.5 0zm1.25-2.75a2.75 2.75 0 100 5.5 2.75 2.75 0 000-5.5z"/>
</symbol>
<symbol id='icon-driving-rental' fill="none" xmlns="http://www.w3.org/2000/svg" viewBox="0 0 24 24">
  <path fill-rule="evenodd" clip-rule="evenodd" d="M12 9.52a2.48 2.48 0 1 0 0 4.96 2.48 2.48 0 0 0 0-4.96ZM10.873 12a1.128 1.128 0 1 1 2.255 0 1.128 1.128 0 0 1-2.255 0Z" fill="#090A0B"/>
  <path fill-rule="evenodd" clip-rule="evenodd" d="M12 3.206a8.794 8.794 0 1 0 0 17.588 8.794 8.794 0 0 0 0-17.588ZM4.559 12c0-.393.03-.78.09-1.156l3.393-1.728a8.724 8.724 0 0 1 7.916 0l3.394 1.728a7.493 7.493 0 0 1 .087 1.32 7.722 7.722 0 0 0-6.601 7.23 7.52 7.52 0 0 1-1.675 0 7.722 7.722 0 0 0-6.602-7.23A7.578 7.578 0 0 1 4.559 12Zm2.87-4.09-2.27 1.155a7.443 7.443 0 0 1 13.681 0L16.571 7.91a10.077 10.077 0 0 0-9.142 0Zm11.847 5.655a6.37 6.37 0 0 0-5.058 5.54 7.454 7.454 0 0 0 5.058-5.54Zm-9.494 5.54a6.37 6.37 0 0 0-5.058-5.54 7.454 7.454 0 0 0 5.058 5.54Z" fill="#090A0B"/>
  <path fill-rule="evenodd" clip-rule="evenodd" d="M12 .5C5.649.5.5 5.649.5 12S5.649 23.5 12 23.5 23.5 18.351 23.5 12 18.351.5 12 .5ZM1.853 12C1.853 6.396 6.396 1.853 12 1.853S22.147 6.396 22.147 12 17.604 22.147 12 22.147 1.853 17.604 1.853 12Z" fill="#090A0B"/>
</symbol>
<symbol id="icon-chauffeured-rental" fill="none" xmlns="http://www.w3.org/2000/svg" viewBox="0 0 30 24">
  <path d="M4.824 11.893C2.552 10.815 1 9.382 1 7.811 1 5.118 12.032 1.75 15 1.75c3.069 0 14 3.368 14 6.061 0 1.595-1.549 3.03-3.818 4.101" stroke="#090A0B" stroke-width="1.5" stroke-linecap="round" stroke-linejoin="round"/>
  <path clip-rule="evenodd" d="M25.18 13.873c-.636 1.488-7.02 1.347-10.182 1.347-3.2 0-9.598.084-10.182-1.347v-2.02s4.721-.673 10.182-.673c5.52 0 10.182.673 10.182.673v2.02z" stroke="#090A0B" stroke-width="1.5" stroke-linecap="round" stroke-linejoin="round"/>
  <path d="M24.544 14.545c.22 1.389 3.818 7.408-9.546 7.408-13.363 0-9.764-6.06-9.545-7.408M13.293 7.244h3.412" stroke="#090A0B" stroke-width="1.5" stroke-linecap="round" stroke-linejoin="round"/>
</symbol>
<symbol id="icon-event-rental" fill="none" xmlns="http://www.w3.org/2000/svg" viewBox="0 0 24 24">
  <path fill-rule="evenodd" clip-rule="evenodd" d="m16.156 5.824-.29-.969c-.248-.752-.946-1.355-1.731-1.355h-4.27c-.785 0-1.484.619-1.732 1.37l-.296.922c-.121.376-.424 1.07-1.27 1.07H3.624c-1.2 0-2.124.892-2.124 2.103v9.144c0 1.21.973 2.191 2.172 2.191h16.656c1.2 0 2.172-.981 2.172-2.191V8.965c0-1.206-.891-2.103-2.086-2.103h-2.931c-.874 0-1.203-.662-1.327-1.038ZM6.705 4.41l-.296.921-.01.03H3.624C1.62 5.362 0 6.902 0 8.965v9.144C0 20.135 1.632 21.8 3.672 21.8h16.656c2.04 0 3.672-1.665 3.672-3.691V8.965c0-2.023-1.552-3.603-3.586-3.603h-2.83l-.28-.936a1.506 1.506 0 0 0-.013-.041C16.881 3.145 15.691 2 14.135 2h-4.27C8.29 2 7.112 3.18 6.71 4.4l-.004.011Zm8.822 8.329a3.54 3.54 0 1 1-7.08 0 3.54 3.54 0 0 1 7.08 0Zm1.5 0a5.04 5.04 0 1 1-10.08 0 5.04 5.04 0 0 1 10.08 0Z" fill="#090A0B"/>
</symbol>
<symbol id="icon-favorite" xmlns="http://www.w3.org/2000/svg" viewBox="0 0 20 20">
  <path d="M9.991 1.685a.01.01 0 01.018 0l2.564 5.194a.01.01 0 00.007.005l5.733.833a.01.01 0 01.006.017l-4.148 4.044a.01.01 0 00-.003.01l.979 5.709a.01.01 0 01-.015.01l-5.127-2.694a.01.01 0 00-.01 0l-5.127 2.695a.01.01 0 01-.014-.011l.979-5.71a.01.01 0 00-.003-.009L1.68 7.734a.01.01 0 01.006-.017l5.733-.833a.01.01 0 00.007-.005l2.564-5.194z" stroke="currentColor" stroke-width="1.5" stroke-miterlimit="10" stroke-linecap="square"/>
</symbol>
<symbol id="icon-radio-check" xmlns="http://www.w3.org/2000/svg" viewBox="0 0 12 9">
  <path d="M4.83 8.689l6.924-7.2h.002a.88.88 0 00.193-.305.815.815 0 00-.055-.687.92.92 0 00-.24-.278 1.034 1.034 0 00-.339-.173 1.104 1.104 0 00-.763.05.994.994 0 00-.308.215L4.013 6.787 1.7 4.746a1.061 1.061 0 00-.71-.257c-.265.002-.519.1-.704.27A.855.855 0 000 5.398a.824.824 0 00.08.344.903.903 0 00.22.29l3.075 2.71c.187.166.438.258.7.258h.041a1.09 1.09 0 00.393-.09.995.995 0 00.32-.221z"/>
</symbol>
<!-- <symbol id="icon-user-no-photo" xmlns="http://www.w3.org/2000/svg" viewBox="0 0 64 64">
  <circle cx="32" cy="32" r="32"/>
  <path opacity=".1" d="M15.4 50.498l2.36-1.487a8 8 0 017.208-.67l.786.31a16 16 0 0011.944-.069l.71-.29a8 8 0 016.873.387l3.32 1.819" stroke="#090A0B" stroke-width="4"/>
  <path d="M41.872 26.322c0 3.874-1.206 7.308-3.064 9.732-1.857 2.421-4.28 3.752-6.807 3.752-2.526 0-4.95-1.331-6.807-3.752-1.858-2.424-3.064-5.858-3.064-9.732 0-3.875 1.206-7.309 3.064-9.732 1.856-2.421 4.28-3.752 6.807-3.752 2.526 0 4.95 1.33 6.807 3.752 1.858 2.423 3.064 5.857 3.064 9.732z" stroke="#DEE0E2" stroke-width="4"/>
</symbol> -->
<symbol id='icon-user-no-photo' fill="none" xmlns="http://www.w3.org/2000/svg" viewBox="0 0 240 240">
  <g clip-path="url(#a)">
    <path fill="#fff" d="M0 0h240v240H0z"/>
    <mask id="b" style="mask-type:alpha" maskUnits="userSpaceOnUse" x="10" y="150" width="220" height="120">
      <path fill-rule="evenodd" clip-rule="evenodd" d="M10 270v-42.318C10 210 29.5 205.5 51.5 197c15.5-5.5 21-7.5 30-10.5 7.455-1.558 12.185-10.198 13.42-17.173 1.205-8.614 1.913-17.693 2.036-19.327h46.088c.123 1.634.831 10.713 2.036 19.327 0 7.173 4.465 15.615 11.92 17.173 9.042 4.051 27 9 43 15.5s28.5 8.5 30 25.682V270H10Z" fill="#D2D6DA"/>
    </mask>
    <g mask="url(#b)">
      <path fill-rule="evenodd" clip-rule="evenodd" d="M10 270v-42.318C10 214 22 210 43 200.5c13.5-4.5 29.458-10.949 39-14 7.455-1.558 11.685-10.198 12.92-17.173 1.205-8.614 1.913-17.693 2.036-19.327h46.088c.123 1.634.831 10.713 2.037 19.327C146.315 176.302 147.5 182 155.5 186c8 4 15 5 36.5 13s38 12 38 28.682V270H10Z" fill="#D2D6DA"/>
      <path fill-rule="evenodd" clip-rule="evenodd" d="M32.968 200.957c93.032-35.337 73.045-4.479 73.045-4.479l5.217 15.651c0 10.437-12.533 35.109-33.753 36.524-18.908 1.255-44.509-3.908-44.509 15.041C32.968 284.898-6 278.457-6 278.457s10-6.5 10-40.5c-1-21.5 15-31.694 28.968-37Z" fill="#C1C7CC"/>
      <path fill-rule="evenodd" clip-rule="evenodd" d="M82 138h73.618l-.792 48.219s-1.937 1.863-5.255 6.272a39.177 39.177 0 0 1-30.22 15.61v.016c-.182 0-.365-.005-.542-.005-.178 0-.36.005-.543.005v-.016a39.175 39.175 0 0 1-30.219-15.61c-3.318-4.409-4.72-7.272-4.72-7.272L82 138Z" fill="#DEE0E2"/>
      <mask id="c" style="mask-type:alpha" maskUnits="userSpaceOnUse" x="73" y="140" width="74" height="71">
        <path fill-rule="evenodd" clip-rule="evenodd" d="M73 140h73.618v45.188s-2.729 4.894-6.047 9.303a39.177 39.177 0 0 1-30.22 15.61v.016c-.182 0-.365-.005-.542-.005-.178 0-.36.005-.543.005v-.016a39.175 39.175 0 0 1-30.219-15.61c-3.318-4.409-6.047-9.303-6.047-9.303V140Z" fill="#DDE0E3"/>
      </mask>
      <g mask="url(#c)">
        <path fill-rule="evenodd" clip-rule="evenodd" d="M163.037 147.215c-5 20-68.998 51.724-68.998 51.724-4.771-4.454-7.104-7.264-10.54-12.939L52 113l111.038 34.215Z" fill="#CDD1D6"/>
      </g>
    </g>
    <mask id="d" style="mask-type:alpha" maskUnits="userSpaceOnUse" x="70" y="41" width="97" height="126">
      <path fill-rule="evenodd" clip-rule="evenodd" d="M115.647 166.999c-3.424 0-6.815-.959-9.768-2.778-19.636-12.111-31.379-36.722-33.88-57.985C70 94.999 70.5 93.201 70.5 83.139c0-8.64 4.184-18.21 12.001-26.383 7.817-8.173 21.44-15.257 32.5-15.257h11.5c11.054 0 22.047 7.084 29.864 15.257 6.695 7 10.464 16.487 10.464 26.383 0 1.63.639 9.949-.547 23.097-1.942 21.536-12.458 45.874-32.095 57.985a18.637 18.637 0 0 1-9.768 2.778h-8.771Z" fill="#DDE0E3"/>
    </mask>
    <g mask="url(#d)" fill-rule="evenodd" clip-rule="evenodd">
      <path d="m128.979 168.182-17.352 3.075.072-7.832a11.365 11.365 0 0 1-2.009-.903l-8.215-4.702-16.694-9.557A17.43 17.43 0 0 1 76 133.127V76.971a12.71 12.71 0 0 1 3.867-9.133L94.671 53.49a14.016 14.016 0 0 1 9.759-3.952h8.314l.221-24.031 23.794-3.508a25.716 25.716 0 0 1 17.891 7.248l8.184 7.932a23.315 23.315 0 0 1 7.086 16.74v72.113a31.971 31.971 0 0 1-14.394 26.705l-7.766 5.113c-4.27 2.811-8.253 5.433-10.967 7.223a20.884 20.884 0 0 1-7.814 3.109Z" fill="#DEE0E2"/>
      <path d="M119.361 172.033H46V38.999h73.361c.139 30 .139 14.5 0 38.09.015 2.41.017.109 0 0 .078 9.6 0 34.5 0 40.7-.078.21.059-.29 0 1.8-.078 2.755 0 .41-.078 4-.042 1.91 0 4.91 0 5.5.078 16.41.078 27.41.078 42.944Z" fill="#D2D6DA"/>
    </g>
  </g>
  <defs>
    <clipPath id="a">
      <path fill="#fff" d="M0 0h240v240H0z"/>
    </clipPath>
  </defs>
</symbol>
<symbol id="icon-state-success" fill="none" xmlns="http://www.w3.org/2000/svg" viewBox="0 0 32 32">
  <path fill-rule="evenodd" clip-rule="evenodd" d="M2.667 16C2.667 8.641 8.64 2.667 16 2.667c7.36 0 13.333 5.974 13.333 13.333S23.36 29.333 16 29.333 2.667 23.36 2.667 16zm24.715 0c0-6.282-5.1-11.382-11.382-11.382S4.618 9.718 4.618 16 9.718 27.382 16 27.382 27.382 22.282 27.382 16zm-13.858 4.412a.127.127 0 01-.091-.038l-4.3-4.351a.13.13 0 00-.184 0l-.6.595-.599.595a.13.13 0 00-.001.183l5.671 5.74a.13.13 0 00.184 0l5.228-5.197 5.233-5.201a.13.13 0 000-.185 777.067 777.067 0 01-1.188-1.2.13.13 0 00-.184 0l-9.077 9.022a.127.127 0 01-.092.037z" fill="#00AD82"/>
</symbol>
<symbol id="icon-state-pending" fill="none" xmlns="http://www.w3.org/2000/svg" viewBox="0 0 32 32">
  <circle cx="16" cy="16" r="16" fill="#E6C005"/>
  <path d="M10.42 13.142l-1.108 1.107a6.764 6.764 0 0111.861-2.11l.98-.742a7.991 7.991 0 00-14.129 2.897L6.87 13.142l-.87.87 2.646 2.645 2.646-2.646-.872-.87zM22.91 15.782l-2.646 2.646.87.87 1.12-1.12a6.769 6.769 0 01-11.971 2l-1 .72a7.95 7.95 0 005.202 3.223 7.981 7.981 0 009.046-5.973l1.152 1.15.872-.87-2.645-2.646zm-.031 1.773l.031-.031.046.046-.077-.015z" fill="#090A0B"/>
</symbol>
<symbol id="icon-state-error" fill="none" xmlns="http://www.w3.org/2000/svg" viewBox="0 0 32 32">
  <path fill-rule="evenodd" clip-rule="evenodd" d="M29.506 18.065a2.918 2.918 0 00.024-4.132c-2.693-2.73-8.666-8.78-11.399-11.549A2.98 2.98 0 0016.01 1.5c-.8 0-1.566.318-2.124.884A74025.73 74025.73 0 002.488 13.933a2.918 2.918 0 00.024 4.132c1.54 1.523 4.133 4.091 6.584 6.518l4.816 4.768c.556.551 1.31.86 2.099.86.786 0 1.54-.309 2.099-.86l11.397-11.286zm-1.398-1.386l-11.4 11.286a.995.995 0 01-1.4 0l-7.975-7.897L3.91 16.68a.973.973 0 01-.007-1.376c2.693-2.73 8.666-8.78 11.399-11.549a.993.993 0 011.415 0l5.095 5.162.008.008 6.295 6.379a.971.971 0 01-.007 1.377zM14.984 8.396a.134.134 0 00-.094.039.13.13 0 00-.036.094l.239 9.813h1.828l.129-9.814a.13.13 0 00-.13-.132h-1.936zm-.61 13.812a1.633 1.633 0 103.265 0 1.633 1.633 0 00-3.265 0z" fill="#BD2D00"/>
</symbol>
<symbol id="icon-arrow-expand" xmlns="http://www.w3.org/2000/svg" viewBox="0 0 16 16">
  <path fill-rule="evenodd" clip-rule="evenodd" d="M2.687 6.71a.2.2 0 01-.03-.28l.686-.86a.2.2 0 01.281-.031l4.25 3.4a.2.2 0 00.25 0l4.251-3.4a.2.2 0 01.281.031l.687.86a.2.2 0 01-.03.28l-5.188 4.15a.2.2 0 01-.25 0L2.687 6.71z" fill=""/>
</symbol>
<symbol id="icon-arrow-expand-16" fill="none" xmlns="http://www.w3.org/2000/svg" viewBox="0 0 16 16">
  <path d="M15 6l-7 5-7-5" stroke="currentColor" stroke-width="1.5" stroke-miterlimit="10"/>
</symbol>
<symbol id="icon-drag-dots" xmlns="http://www.w3.org/2000/svg" viewBox="0 0 11 18">
      <circle cx="2" cy="2" r="2" fill=""/>
      <circle cx="9" cy="2" r="2" fill=""/>
      <circle cx="2" cy="9" r="2" fill=""/>
      <circle cx="9" cy="9" r="2" fill=""/>
      <circle cx="2" cy="16" r="2" fill=""/>
      <circle cx="9" cy="16" r="2" fill=""/>
</symbol>

<symbol id="sandwich" fill="none" xmlns="http://www.w3.org/2000/svg" viewBox="0 0 24 24">
  <path fill-rule="evenodd" clip-rule="evenodd" d="M3 20h18.46v-1.917H3V20zM3 7.217h18.46V5.3H3v1.917zm18.46 6.392H3V11.69h18.46v1.918z" fill="currentColor"/>
</symbol>
<symbol id="arrow-accordion" fill="none" xmlns="http://www.w3.org/2000/svg" viewBox="0 0 24 24">
  <path d="M19 10l-7 5-7-5" stroke="currentColor" stroke-width="1.5" stroke-miterlimit="10"/> 
</symbol>
<symbol id="icon-show-map" fill="none" xmlns="http://www.w3.org/2000/svg" viewBox="0 0 24 24">
  <path clip-rule="evenodd" d="M13.786 5.523L7.696 4v13.392l7.652 1.913V5.913l-1.563-.39zM7.696 17.392L1 19.305V5.913L7.696 4v13.392zM23 17.392l-7.652 1.913V5.913L23 4v13.483-.091z" stroke="currentColor" stroke-width="1.5" stroke-linecap="round" stroke-linejoin="round"/>
</symbol>
<symbol id="icon-triangle-down" xmlns="http://www.w3.org/2000/svg" viewBox="0 0 16 16">
  <path d="M4.068 5a.5.5 0 00-.385.82l3.933 4.72a.5.5 0 00.768 0l3.933-4.72a.5.5 0 00-.385-.82H4.068z" fill="currentColor"/>
</symbol>
<symbol id="icon-map-expand" fill="none" xmlns="http://www.w3.org/2000/svg" viewBox="0 0 20 20">
  <path d="M.75 8V.75H8M19.25 12v7.25H12M12 .75h7.25V8M8 19.25H.75V12" stroke="currentColor" stroke-width="1.5"/>
</symbol>
<symbol id="icon-map-collapse" fill="none" xmlns="http://www.w3.org/2000/svg" viewBox="0 0 20 20">
  <path d="M12.75 20v-7.25H20M7.25 0v7.25H0M0 12.75h7.25V20M20 7.25h-7.25V0" stroke="currentColor" stroke-width="1.5"/>
</symbol>
<symbol id="icon-map-close" xmlns="http://www.w3.org/2000/svg" viewBox="0 0 17 17">
  <path d="M9.121 8.06l7-7L15.061 0l-7 7-7-7L0 1.06l7 7-7 7 1.06 1.061 7-7 7 7 1.061-1.06-7-7z" fill="currentColor"/>
</symbol>
<symbol id="icon-filter" xmlns="http://www.w3.org/2000/svg" viewBox="0 0 20 20">
  <path fill-rule="evenodd" clip-rule="evenodd" d="M17.582 7.5a2.583 2.583 0 10-5.167 0 2.583 2.583 0 005.167 0zM14.249 0v3.485a4.085 4.085 0 00.75 8.098 4.083 4.083 0 00.75-8.098V0h-1.5zm0 14.167V20h1.5v-5.833h-1.5zm-10 2.348a4.085 4.085 0 01.75-8.098 4.083 4.083 0 01.75 8.098V20h-1.5v-3.485zM5.749 0v5.833h-1.5V0h1.5zm-.75 9.917a2.583 2.583 0 110 5.166 2.583 2.583 0 010-5.166z" fill="currentColor"/>
</symbol>
<symbol id="icon-car" fill="none" xmlns="http://www.w3.org/2000/svg" viewBox="0 0 25 25">
  <path d="M12.5 4c-1.458 0-5.021.208-5.5.5-.48.292-2.354 4.042-2.5 4.5-.146.458-1.688.062-2 .5-.313.437-.5.854-1 1-.5.146-.5 2.229-.5 3.5 0 1.27.209 3.345.5 3.5.312.166 5.708.5 11 .5M12.5 8c-3.86 0-7.203.561-8 1M1 14.5s6.167.5 11.5.5" stroke="currentColor" stroke-width="1.5" stroke-linecap="round" stroke-linejoin="round"/>
  <path d="M1 17v2a1 1 0 001 1h2a1 1 0 001-1v-1M5 8H3M12.5 4c1.458 0 5.02.208 5.5.5.479.292 2.354 4.042 2.5 4.5.146.458 1.688.062 2 .5.313.437.5.854 1 1 .5.146.5 2.229.5 3.5 0 1.27-.21 3.345-.5 3.5-.312.166-5.708.5-11 .5M12.5 8c3.859 0 7.203.561 8 1M24 14.5s-6.167.5-11.5.5" stroke="currentColor" stroke-width="1.5" stroke-linecap="round" stroke-linejoin="round"/>
  <path d="M24 17v2a1 1 0 01-1 1h-2a1 1 0 01-1-1v-1M20 8h2M1.5 12h3.305C5.96 12 7 14.5 7 14.5M23.5 12h-3.305C19.04 12 18 14.5 18 14.5M9 13h7" stroke="currentColor" stroke-width="1.5" stroke-linecap="round" stroke-linejoin="round"/>
</symbol>
<symbol id="icon-arrow-slide" fill="none" xmlns="http://www.w3.org/2000/svg" viewBox="0 0 25 24">
  <path d="M16.5 1l-11 11 11 11" stroke="currentColor" stroke-width="1.5"/>
</symbol>
<symbol id="icon-undo" xmlns="http://www.w3.org/2000/svg" viewBox="0 0 25 25">
  <path fill-rule="evenodd" clip-rule="evenodd" d="M2.442 9.357a6.914 6.914 0 1113.829 0 6.914 6.914 0 01-13.829 0zM9.356.942a8.414 8.414 0 100 16.829 8.414 8.414 0 000-16.829zm10.448 7.196l-.622-.418-.837 1.244.622.419a6.906 6.906 0 11-9.584 9.584l-.419-.622-1.244.837.418.622A8.406 8.406 0 1019.804 8.138z" fill="currentColor"/>
</symbol>
<symbol id="icon-ellipsis" fill="none" xmlns="http://www.w3.org/2000/svg" viewBox="0 0 32 32">
  <path d="M16.5 17.573c.718 0 1.3-.576 1.3-1.286 0-.711-.582-1.287-1.3-1.287-.718 0-1.3.576-1.3 1.287 0 .71.582 1.286 1.3 1.286zM11.3 17.573c.718 0 1.3-.576 1.3-1.286 0-.711-.582-1.287-1.3-1.287-.718 0-1.3.576-1.3 1.287 0 .71.582 1.286 1.3 1.286zM21.7 17.573c.718 0 1.3-.576 1.3-1.286 0-.711-.582-1.287-1.3-1.287-.718 0-1.3.576-1.3 1.287 0 .71.582 1.286 1.3 1.286z" fill="#8E949A"/>
</symbol>
<symbol id="upload-cross" xmlns="http://www.w3.org/2000/svg" viewBox="0 0 34 34">
  <path d="m32.877 16.254-15.142.012.011-15.142a.734.734 0 0 0-1.468 0l-.011 15.143-15.143.01a.734.734 0 0 0 0 1.468l15.142-.011-.012 15.142a.728.728 0 0 0 .59.718.735.735 0 0 0 .88-.718l.01-15.142 15.143-.012a.734.734 0 1 0 0-1.468Z" fill="currentColor"/>
</symbol>
<symbol id="clear-round-32" fill="none" xmlns="http://www.w3.org/2000/svg" viewBox="0 0 32 32">
  <circle cx="16" cy="16" r="16" fill="#B1B5B9"/>
  <path d="m10.666 10.667 10.667 10.667m0-10.667L10.666 21.334" stroke="#fff" stroke-width="1.5" stroke-miterlimit="10" stroke-linecap="square"/>
</symbol>
<symbol id="icon-blocked-16"  xmlns="http://www.w3.org/2000/svg" viewBox="0 0 16 16">
  <g clip-path="url(#a)">
    <path d="M8 0C3.584 0 0 3.584 0 8s3.584 8 8 8 8-3.584 8-8-3.584-8-8-8ZM1.6 8c0-3.536 2.864-6.4 6.4-6.4 1.48 0 2.84.504 3.92 1.352L2.952 11.92A6.322 6.322 0 0 1 1.6 8ZM8 14.4c-1.48 0-2.84-.504-3.92-1.352l8.968-8.968A6.321 6.321 0 0 1 14.4 8c0 3.536-2.864 6.4-6.4 6.4Z" fill="currentColor"/>
  </g>
  <defs>
    <clipPath id="a">
      <path fill="#fff" d="M0 0h16v16H0z"/>
    </clipPath>
  </defs>
</symbol>
<symbol id="icon-unblocked-16" xmlns="http://www.w3.org/2000/svg" viewBox="0 0 16 16">
  <path fill-rule="evenodd" clip-rule="evenodd" d="M2.343 13.657A8 8 0 1 0 13.657 2.343 8 8 0 0 0 2.343 13.657Zm1.93-.673a6.224 6.224 0 0 0 8.711-8.711l-2.47 2.47a.89.89 0 0 1-1.257-1.257l2.47-2.47a6.224 6.224 0 0 0-8.711 8.711l2.47-2.47a.889.889 0 0 1 1.257 1.257l-2.47 2.47Z" fill="currentColor"/>
</symbol>
<symbol id="icon-send-filled-24" xmlns="http://www.w3.org/2000/svg" viewBox="0 0 24 24">
  <path d="m12.814 12.197-7.532 1.256a.5.5 0 0 0-.386.318L2.3 20.728c-.248.64.421 1.25 1.035.943l18-9a.75.75 0 0 0 0-1.342l-18-9c-.614-.307-1.283.304-1.035.943l2.598 6.957a.5.5 0 0 0 .386.319l7.532 1.255a.2.2 0 0 1 0 .394Z" fill="currentColor"/>
</symbol>
<symbol id="icon-dollar" fill="none" xmlns="http://www.w3.org/2000/svg" viewBox="0 0 48 30">
  <mask id="a" style="mask-type:alpha" maskUnits="userSpaceOnUse" x="1" y="0" width="47" height="30">
    <path d="M47.094.938H1v28.125h46.094V.938Z" fill="#fff"/>
  </mask>
  <g mask="url(#a)" stroke="#090A0B" stroke-width="1.5" stroke-miterlimit="5">
    <path d="M1 7.969A7.031 7.031 0 1 0 1-6.094 7.031 7.031 0 0 0 1 7.97ZM1 36.094A7.031 7.031 0 1 0 1 22.03a7.031 7.031 0 0 0 0 14.063ZM47.094 7.969a7.031 7.031 0 1 0 0-14.063 7.031 7.031 0 0 0 0 14.063ZM47.094 36.094a7.031 7.031 0 1 0 0-14.063 7.031 7.031 0 0 0 0 14.063ZM24.475 22.548a7.812 7.812 0 1 0 0-15.625 7.812 7.812 0 0 0 0 15.625Z"/>
  </g>
  <path d="M47.094.938H1v28.125h46.094V.938Z" stroke="#090A0B" stroke-width="1.5" stroke-miterlimit="5"/>
</symbol>
<symbol id="icon-driveable" fill="none" xmlns="http://www.w3.org/2000/svg" viewBox="0 0 56 56">
  <path fill-rule="evenodd" clip-rule="evenodd" d="M28 21.5a6 6 0 1 0 0 12 6 6 0 0 0 0-12Zm-4.5 6a4.5 4.5 0 1 1 9 0 4.5 4.5 0 0 1-9 0Z" fill="#000"/>
  <path fill-rule="evenodd" clip-rule="evenodd" d="M28 6.25C15.988 6.25 6.25 15.988 6.25 28S15.988 49.75 28 49.75 49.75 40.012 49.75 28 40.012 6.25 28 6.25ZM7.75 28a20.4 20.4 0 0 1 .247-3.172l10.62-4.685a22.25 22.25 0 0 1 8.981-1.893h.804c3.093 0 6.151.645 8.98 1.893l10.621 4.685a20.404 20.404 0 0 1-.14 7.133l-4.312-.838c-6.636-1.29-12.801 3.792-12.801 10.552v6.39a20.433 20.433 0 0 1-5.5 0v-6.39c0-6.76-6.165-11.842-12.801-10.552l-4.312.838A20.348 20.348 0 0 1 7.75 28Zm10.262-9.23-9.647 4.256C10.582 14.247 18.532 7.75 28 7.75c9.468 0 17.418 6.497 19.635 15.276l-9.647-4.255a23.75 23.75 0 0 0-9.586-2.021h-.804a23.75 23.75 0 0 0-9.586 2.02Zm25.253 13.825 4.251.826c-1.999 7.212-7.888 12.806-15.266 14.382v-6.128c0-5.817 5.305-10.19 11.015-9.08Zm-19.515 9.08v6.128c-7.378-1.575-13.267-7.17-15.266-14.382l4.251-.826c5.71-1.11 11.015 3.263 11.015 9.08Z" fill="#000"/>
  <path fill-rule="evenodd" clip-rule="evenodd" d="M28 1C13.088 1 1 13.088 1 28s12.088 27 27 27 27-12.088 27-27S42.912 1 28 1ZM2.5 28C2.5 13.917 13.917 2.5 28 2.5S53.5 13.917 53.5 28 42.083 53.5 28 53.5 2.5 42.083 2.5 28Z" fill="#000"/>
</symbol>
<symbol id="chat" fill="none" xmlns="http://www.w3.org/2000/svg" viewBox="0 0 324 213">
  <path d="M30.22 78.407V12.575c0-6.016 4.913-10.936 10.92-10.936h213.239c6.007 0 10.921 4.92 10.921 10.936v31.48M265.3 147.245v53.517c0 6.016-4.914 10.937-10.921 10.937H41.139c-6.006 0-10.92-4.921-10.92-10.937v-31.488" stroke="currentColor" stroke-width="2" stroke-miterlimit="10" stroke-linecap="round" stroke-linejoin="round"/>
  <path d="M30.22 23.747V12.892c0-6.188 5.054-11.253 11.236-11.253H254.07c6.179 0 11.236 5.062 11.236 11.253v10.855H30.22Z" stroke="currentColor" stroke-width="2" stroke-miterlimit="10" stroke-linecap="round" stroke-linejoin="round"/>
  <path d="M46.028 12.694c0 .824-.667 1.49-1.487 1.49-.819 0-1.486-.666-1.486-1.49s.667-1.49 1.486-1.49c.82 0 1.487.666 1.487 1.49ZM55.962 12.694c0 .824-.667 1.49-1.486 1.49-.82 0-1.487-.666-1.487-1.49s.667-1.49 1.487-1.49c.82 0 1.486.666 1.486 1.49ZM65.896 12.694c0 .824-.667 1.49-1.486 1.49-.82 0-1.486-.666-1.486-1.49s.666-1.49 1.486-1.49 1.486.666 1.486 1.49Z" stroke="currentColor" stroke-width="2"/>
  <path d="M24.104 83.807h73.244c12.649 0 22.27 8.727 22.27 21.43v33.597c0 12.162-9.739 22.275-21.585 23.114.003.056-.993.056-.993.056v21.864l-22.33-20.702H24.104c-12.65 0-23.022-11.629-23.022-24.332v-33.597c0-12.703 10.372-21.43 23.021-21.43ZM20.749 106.301H96.95M20.749 123.307H85.66M20.749 140.312h45.156" stroke="currentColor" stroke-width="2" stroke-miterlimit="10" stroke-linecap="round" stroke-linejoin="round"/>
  <path d="M297.145 50.012h-83.016c-14.337 0-26.303 11.928-26.303 26.21v37.785c0 14.285 10.007 27.051 25.017 27.051v23.593l26.941-22.409h57.361c14.338 0 25.773-13.952 25.773-28.235V76.223c0-14.283-11.435-26.21-25.773-26.21Z" fill="#fff" stroke="currentColor" stroke-width="2" stroke-miterlimit="10" stroke-linecap="round" stroke-linejoin="round"/>
  <path d="M211.592 74.78h85.058M211.592 94.723h62.543M211.592 112.171h42.529" stroke="currentColor" stroke-width="2" stroke-miterlimit="10" stroke-linecap="round" stroke-linejoin="round"/>
</symbol>
</svg> 