<svg fill="none" xmlns="http://www.w3.org/2000/svg" viewBox="0 0 32 32">
  <path fill-rule="evenodd" clip-rule="evenodd" d="M29.506 18.065a2.918 2.918 0 00.024-4.132c-2.693-2.73-8.666-8.78-11.399-11.549A2.98 2.98 0 0016.01 1.5c-.8 0-1.566.318-2.124.884A74025.73 74025.73 0 002.488 13.933a2.918 2.918 0 00.024 4.132c1.54 1.523 4.133 4.091 6.584 6.518l4.816 4.768c.556.551 1.31.86 2.099.86.786 0 1.54-.309 2.099-.86l11.397-11.286zm-1.398-1.386l-11.4 11.286a.995.995 0 01-1.4 0l-7.975-7.897L3.91 16.68a.973.973 0 01-.007-1.376c2.693-2.73 8.666-8.78 11.399-11.549a.993.993 0 011.415 0l5.095 5.162.008.008 6.295 6.379a.971.971 0 01-.007 1.377zM14.984 8.396a.134.134 0 00-.094.039.13.13 0 00-.036.094l.239 9.813h1.828l.129-9.814a.13.13 0 00-.13-.132h-1.936zm-.61 13.812a1.633 1.633 0 103.265 0 1.633 1.633 0 00-3.265 0z" fill="#BD2D00"/>
</svg>