<svg fill="none" xmlns="http://www.w3.org/2000/svg" viewBox="0 0 32 32">
  <path fill-rule="evenodd" clip-rule="evenodd" d="M2.667 16C2.667 8.641 8.64 2.667 16 2.667S29.333 8.64 29.333 16c0 7.36-5.974 13.333-13.333 13.333C8.64 29.333 2.666 23.36 2.666 16Zm24.715 0c0-6.282-5.1-11.382-11.382-11.382S4.618 9.718 4.618 16 9.718 27.382 16 27.382 27.382 22.282 27.382 16Zm-13.858 4.412a.127.127 0 0 1-.092-.038l-4.299-4.35a.13.13 0 0 0-.184-.002l-.6.596-.599.595a.13.13 0 0 0-.002.183l5.672 5.74a.132.132 0 0 0 .091.038.133.133 0 0 0 .093-.038l5.228-5.197 5.233-5.201a.13.13 0 0 0 0-.184l-.594-.6c-.234-.238-.47-.475-.594-.6a.13.13 0 0 0-.184-.001l-9.077 9.022a.127.127 0 0 1-.092.037Z" fill="#00AD82"/>
</svg>
