<svg width="20" height="20" viewBox="0 0 20 20" fill="none" xmlns="http://www.w3.org/2000/svg">
<path d="M9.9998 1.439L12.9143 6.21137L13.0721 6.46987L13.3652 6.54624L18.7011 7.93659L15.163 12.4265L14.9601 12.684L15.0113 13.0078L15.9276 18.8063C14.9044 18.3941 13.7653 17.941 12.7801 17.551C12.0757 17.272 11.4492 17.025 10.9988 16.8477L10.4674 16.6388L10.3238 16.5824L10.2864 16.5677L10.2769 16.564L10.2745 16.563L10.2739 16.5628L10.2737 16.5627L9.9999 17.2609L10.2737 16.5627L9.9977 16.4545L9.72231 16.5642L4.07141 18.8156L4.98892 13.0076L5.04008 12.6838L4.83718 12.4264L1.29894 7.93656L6.63437 6.54624L6.92746 6.46986L7.08532 6.21137L9.9998 1.439Z" stroke="#FFBC00" stroke-width="1.5"/>
</svg>
