<svg fill="none" xmlns="http://www.w3.org/2000/svg" viewBox="0 0 16 16">
  <path d="M1.667 8.333s2.666-4.666 6.666-4.666S15 8.333 15 8.333 12.333 13 8.333 13 1.667 8.333 1.667 8.333z" stroke="#090A0B" stroke-width="1.5" stroke-miterlimit="10" stroke-linecap="round" stroke-linejoin="round"/>
  <path d="M8.333 10.333a2 2 0 100-4 2 2 0 000 4z" stroke="#090A0B" stroke-width="1.5" stroke-miterlimit="10" stroke-linecap="square"/>
  <path d="M1.667 8.333s2.666-4.666 6.666-4.666S15 8.333 15 8.333 12.333 13 8.333 13 1.667 8.333 1.667 8.333z" stroke="#090A0B" stroke-width="1.5" stroke-miterlimit="10" stroke-linecap="round" stroke-linejoin="round"/>
  <path d="M8.333 10.333a2 2 0 100-4 2 2 0 000 4z" stroke="#090A0B" stroke-width="1.5" stroke-miterlimit="10" stroke-linecap="square"/>
  <path d="M2.33 14.347L14.329 2.35" stroke="#090A0B" stroke-width="1.5" stroke-linecap="round"/>
</svg>
