<svg fill="none" xmlns="http://www.w3.org/2000/svg" viewBox="0 0 32 32">
  <path d="M16 32c8.837 0 16-7.163 16-16S24.837 0 16 0 0 7.163 0 16s7.163 16 16 16z" fill="#fff"/>
  <path d="M16.5 17.573c.718 0 1.3-.576 1.3-1.286 0-.711-.582-1.287-1.3-1.287-.718 0-1.3.576-1.3 1.287 0 .71.582 1.286 1.3 1.286zM11.3 17.573c.718 0 1.3-.576 1.3-1.286 0-.711-.582-1.287-1.3-1.287-.718 0-1.3.576-1.3 1.287 0 .71.582 1.286 1.3 1.286zM21.7 17.573c.718 0 1.3-.576 1.3-1.286 0-.711-.582-1.287-1.3-1.287-.718 0-1.3.576-1.3 1.287 0 .71.582 1.286 1.3 1.286z" fill="#8E949A"/>
</svg>
