<svg fill="none" xmlns="http://www.w3.org/2000/svg" viewBox="0 0 189 19">
  <path fill-rule="evenodd" clip-rule="evenodd" d="M94.064 15.312h.383c.322 0 .678-.02.678-.406 0-.385-.356-.405-.678-.4h-.383v.806zm-.525-1.25h1.102c.686 0 1.009.31 1.009.865 0 .5-.296.744-.686.792l.745 1.216h-.55l-.712-1.177h-.383v1.177h-.525V14.06zm.961 3.523a2.064 2.064 0 002.057-2.07c0-1.143-.921-2.07-2.057-2.07a2.063 2.063 0 00-2.056 2.07c0 1.143.92 2.07 2.056 2.07zm0-4.585c1.378 0 2.5 1.13 2.5 2.515a2.512 2.512 0 01-2.5 2.516c-1.378 0-2.5-1.13-2.5-2.515A2.512 2.512 0 0194.5 13zM94.569.272l-4.243 10.965v6.416h-5.04v-6.416l-3.942-9.22h-3.217v15.636H72.78V2.017h-4.293V.272h17.347l3.538 8.38 3.184-8.38h2.014zm-32.637 8.22h-1.017V2.505h1.017c1.91 0 2.864.998 2.864 2.993 0 1.995-.953 2.992-2.864 2.992zm7-3.136c.037-1.374-.547-2.958-1.555-3.855C66.505.726 65.292.272 63.346.272H55.87v17.381h5.044v-7.28l3.858 7.28h5.475l-4.425-7.949c2.477-1.428 3.065-2.68 3.11-4.348zM48.582 15.479h6.686v2.2h-11.73V.3h11.269v2.2H48.58v5.26h5.232V9.96H48.58v5.52zM36.095 7.838h6.531v8.946s-.29.05-.809.225c-.538.181-.602.206-1.253.376 0 0-2.345.588-3.908.588-2.573 0-4.57-.771-5.992-2.311-1.421-1.542-2.132-3.713-2.132-6.514 0-2.725.753-4.93 2.26-6.616C32.298.848 34.273.082 36.707.005c2.92-.091 5.679.996 5.769 5.249l-2.266.03-.065-.806c-.31-1.784-1.129-2.753-2.858-2.687-1.385.053-2.143.517-2.578 1.41-.52 1.064-.701 3.111-.701 6.074 0 2.768.189 4.648.568 5.642.376.994 1.095 1.49 2.157 1.49 1.248 0 1.872-.698 1.872-2.09V10.04h-2.508V7.838zm-17.782 4.329l2.32-7.705 2.146 7.705h-4.466zM19.276.298L14.2 16.676V.298H9.157v7.447H5.043V.298H0V17.68h5.043V9.948h4.114v7.732h7.477l1.161-3.77h5.48l1.078 3.77h5.308L24.594.298h-5.318z" fill="#090A0B"/>
  <path fill="#090A0B" d="M105 0h1v18h-1zM115.5 4.35h3.495c1.01 0 1.895.225 2.655.675.77.44 1.36 1.06 1.77 1.86.42.8.63 1.725.63 2.775 0 1.03-.21 1.95-.63 2.76a4.685 4.685 0 01-1.785 1.905c-.76.45-1.65.675-2.67.675H115.5V4.35zm3.435 9.45c.74 0 1.38-.18 1.92-.54.55-.37.965-.87 1.245-1.5.29-.63.435-1.33.435-2.1 0-.8-.14-1.51-.42-2.13a3.314 3.314 0 00-1.23-1.455c-.53-.35-1.17-.525-1.92-.525h-2.04v8.25h2.01zm8.323-4.59c.19-.56.48-1.015.87-1.365.4-.35.87-.525 1.41-.525.12 0 .21.005.27.015V8.58h-.06c-.71 0-1.26.195-1.65.585-.32.32-.525.69-.615 1.11-.09.42-.135.925-.135 1.515V15h-1.275V7.5h1.185v1.71zm4.205-1.71h1.275V15h-1.275V7.5zm-.09-3h1.455v1.605h-1.455V4.5zm2.86 3h1.38l1.68 5.055c.13.39.235.77.315 1.14h.045c.08-.37.185-.75.315-1.14l1.68-5.055h1.38l-2.715 7.5h-1.365l-2.715-7.5zm14.142 4.125h-5.325c.01.73.215 1.32.615 1.77.41.44.95.66 1.62.66.48 0 .89-.12 1.23-.36.34-.25.595-.605.765-1.065l1.05.465c-.26.68-.66 1.2-1.2 1.56-.53.35-1.175.525-1.935.525-1.08 0-1.92-.33-2.52-.99-.6-.67-.9-1.62-.9-2.85 0-1.26.3-2.245.9-2.955.6-.71 1.435-1.065 2.505-1.065 1.02 0 1.805.29 2.355.87.56.58.84 1.425.84 2.535v.9zm-1.29-1.2c0-.68-.17-1.2-.51-1.56-.33-.36-.805-.54-1.425-.54-.65 0-1.16.2-1.53.6-.36.4-.55.955-.57 1.665h4.035v-.165zm6.767 4.83c-1.3 0-2.315-.31-3.045-.93-.73-.63-1.14-1.46-1.23-2.49l1.44-.21c.11.72.395 1.31.855 1.77.47.46 1.145.69 2.025.69.66 0 1.22-.15 1.68-.45.46-.3.69-.76.69-1.38 0-.59-.165-1.02-.495-1.29-.33-.28-.84-.49-1.53-.63l-1.545-.315c-1.78-.37-2.67-1.35-2.67-2.94 0-.59.15-1.11.45-1.56.31-.45.74-.8 1.29-1.05.56-.25 1.215-.375 1.965-.375 1.11 0 2.02.255 2.73.765s1.115 1.265 1.215 2.265l-1.425.3c-.19-1.47-1.04-2.205-2.55-2.205-.66 0-1.195.155-1.605.465-.4.31-.6.73-.6 1.26 0 .51.14.91.42 1.2.28.29.72.5 1.32.63l1.56.33c.93.19 1.65.515 2.16.975.52.46.78 1.14.78 2.04a2.99 2.99 0 01-.435 1.575c-.28.47-.715.85-1.305 1.14-.58.28-1.295.42-2.145.42zm5.914-11.13h1.275V8.91c.45-1.06 1.27-1.59 2.46-1.59.81 0 1.425.255 1.845.765.42.51.63 1.26.63 2.25V15h-1.275v-4.575c0-.66-.14-1.16-.42-1.5-.27-.34-.675-.51-1.215-.51-.64 0-1.14.235-1.5.705-.35.46-.525 1.115-.525 1.965V15h-1.275V4.125zm10.545 11.055c-.77 0-1.385-.2-1.845-.6-.46-.4-.69-.935-.69-1.605 0-.38.09-.72.27-1.02.18-.31.44-.56.78-.75.29-.14.63-.26 1.02-.36.39-.1.89-.185 1.5-.255l1.395-.165v-.12c0-.69-.13-1.185-.39-1.485-.26-.3-.68-.45-1.26-.45-.51 0-.915.13-1.215.39-.3.26-.465.625-.495 1.095h-1.365c.05-.77.35-1.385.9-1.845.56-.46 1.28-.69 2.16-.69 1.03 0 1.78.25 2.25.75.47.49.705 1.28.705 2.37v2.025c0 1.14.085 1.985.255 2.535h-1.335c-.06-.42-.1-.875-.12-1.365-.17.48-.48.86-.93 1.14-.45.27-.98.405-1.59.405zm.285-1.05c.65 0 1.17-.215 1.56-.645.4-.44.6-1.025.6-1.755v-.375l-2.04.3c-.55.08-.955.225-1.215.435-.25.2-.375.485-.375.855s.13.66.39.87c.26.21.62.315 1.08.315zm7.126-4.92c.19-.56.48-1.015.87-1.365.4-.35.87-.525 1.41-.525.12 0 .21.005.27.015V8.58h-.06c-.71 0-1.26.195-1.65.585-.32.32-.525.69-.615 1.11-.09.42-.135.925-.135 1.515V15h-1.275V7.5h1.185v1.71zm10.057 2.415h-5.325c.01.73.215 1.32.615 1.77.41.44.95.66 1.62.66.48 0 .89-.12 1.23-.36.34-.25.595-.605.765-1.065l1.05.465c-.26.68-.66 1.2-1.2 1.56-.53.35-1.175.525-1.935.525-1.08 0-1.92-.33-2.52-.99-.6-.67-.9-1.62-.9-2.85 0-1.26.3-2.245.9-2.955.6-.71 1.435-1.065 2.505-1.065 1.02 0 1.805.29 2.355.87.56.58.84 1.425.84 2.535v.9zm-1.29-1.2c0-.68-.17-1.2-.51-1.56-.33-.36-.805-.54-1.425-.54-.65 0-1.16.2-1.53.6-.36.4-.55.955-.57 1.665h4.035v-.165z"/>
</svg>
