<svg fill="none" xmlns="http://www.w3.org/2000/svg" viewBox="0 0 24 24">
  <path d="M9.255 23C5.832 22.98 3 15.993 3 12.434 3 6.62 7.36 5.348 9.041 5.348c.758 0 1.566.298 2.28.56.499.184 1.014.374 1.301.374.172 0 .577-.161.934-.303.762-.303 1.71-.68 2.815-.68h.006c.825 0 3.325.18 4.828 2.438l.352.529-.507.382c-.724.546-2.045 1.543-2.045 3.516 0 2.338 1.496 3.236 2.215 3.669.317.19.645.387.645.818 0 .28-2.242 6.314-5.499 6.314-.797 0-1.36-.24-1.857-.45-.503-.215-.936-.399-1.653-.399-.363 0-.823.172-1.309.354-.664.248-1.417.53-2.27.53h-.022zM16.715 0c.085 3.058-2.102 5.18-4.286 5.047C12.069 2.607 14.613 0 16.715 0z" fill="#fff"/>
</svg>
