<svg fill="none" xmlns="http://www.w3.org/2000/svg" viewBox="0 0 32 32">
  <path d="M15.991 3.364a.01.01 0 0 1 .018 0l4.109 8.315a.01.01 0 0 0 .007.005l9.188 1.334a.01.01 0 0 1 .006.017l-6.648 6.474a.01.01 0 0 0-.003.009l1.569 9.141a.01.01 0 0 1-.015.01l-8.217-4.314a.01.01 0 0 0-.01 0L7.778 28.67a.01.01 0 0 1-.014-.01l1.569-9.142a.01.01 0 0 0-.003-.009L2.68 13.035a.01.01 0 0 1 .006-.017l9.188-1.334a.01.01 0 0 0 .007-.005l4.11-8.315Z" stroke="#FFBC00" stroke-width="1.5" stroke-miterlimit="10" stroke-linecap="square"/>
</svg>
