<svg fill="none" xmlns="http://www.w3.org/2000/svg" viewBox="0 0 240 240">
  <g clip-path="url(#a)">
    <mask id="b" style="mask-type:alpha" maskUnits="userSpaceOnUse" x="10" y="150" width="220" height="120">
      <path fill-rule="evenodd" clip-rule="evenodd" d="M10 270v-42.318C10 210 29.5 205.5 51.5 197c15.5-5.5 21-7.5 30-10.5 7.455-1.558 12.185-10.198 13.42-17.173 1.205-8.614 1.913-17.693 2.036-19.327h46.088c.123 1.634.831 10.713 2.036 19.327 0 7.173 4.465 15.615 11.92 17.173 9.042 4.051 27 9 43 15.5s28.5 8.5 30 25.682V270H10Z" fill="#D2D6DA"/>
    </mask>
    <g mask="url(#b)">
      <path fill-rule="evenodd" clip-rule="evenodd" d="M10 270v-42.318C10 214 22 210 43 200.5c13.5-4.5 29.458-10.949 39-14 7.455-1.558 11.685-10.198 12.92-17.173 1.205-8.614 1.913-17.693 2.036-19.327h46.088c.123 1.634.831 10.713 2.036 19.327C146.315 176.302 147.5 182 155.5 186c8 4 15 5 36.5 13s38 12 38 28.682V270H10Z" fill="#D2D6DA"/>
      <path fill-rule="evenodd" clip-rule="evenodd" d="M32.968 200.957c93.032-35.337 73.045-4.479 73.045-4.479l5.217 15.651c0 10.437-12.533 35.109-33.753 36.524-18.908 1.255-44.509-3.908-44.509 15.041C32.968 284.898-6 278.457-6 278.457s10-6.5 10-40.5c-1-21.5 15-31.694 28.968-37Z" fill="#C1C7CC"/>
      <path fill-rule="evenodd" clip-rule="evenodd" d="M82 138h73.618l-.792 48.219s-1.937 1.863-5.255 6.272a39.177 39.177 0 0 1-30.22 15.61v.016c-.182 0-.365-.005-.542-.005-.178 0-.36.005-.543.005v-.016a39.175 39.175 0 0 1-30.219-15.61c-3.318-4.409-4.72-7.272-4.72-7.272L82 138Z" fill="#DEE0E2"/>
      <mask id="c" style="mask-type:alpha" maskUnits="userSpaceOnUse" x="73" y="140" width="74" height="71">
        <path fill-rule="evenodd" clip-rule="evenodd" d="M73 140h73.618v45.188s-2.729 4.894-6.047 9.303a39.177 39.177 0 0 1-30.22 15.61v.016c-.182 0-.365-.005-.542-.005-.178 0-.36.005-.543.005v-.016a39.175 39.175 0 0 1-30.219-15.61c-3.318-4.409-6.047-9.303-6.047-9.303V140Z" fill="#DDE0E3"/>
      </mask>
      <g mask="url(#c)">
        <path fill-rule="evenodd" clip-rule="evenodd" d="M163.037 147.215c-5 20-68.998 51.724-68.998 51.724-4.771-4.454-7.104-7.264-10.54-12.939L52 113l111.038 34.215Z" fill="#CDD1D6"/>
      </g>
    </g>
    <path d="M168 91c0 27.614-20.386 77-48 77s-52-49.386-52-77c0-27.614 22.386-50 50-50s50 22.386 50 50Z" fill="#DEE0E2"/>
    <path d="M120 41v127c-27.614 0-52-49.386-52-77 0-27.614 24.386-50 52-50Z" fill="#D2D6DA"/>
  </g>
</svg>
